<?xml version="1.0" standalone="no"?>
<!DOCTYPE svg PUBLIC "-//W3C//DTD SVG 20010904//EN"
 "http://www.w3.org/TR/2001/REC-SVG-20010904/DTD/svg10.dtd">
<svg version="1.0" xmlns="http://www.w3.org/2000/svg"
 width="980.000000pt" height="980.000000pt" viewBox="0 0 980.000000 980.000000"
 preserveAspectRatio="xMidYMid meet">

<g transform="translate(0.000000,980.000000) scale(0.100000,-0.100000)"
fill="#000000" stroke="none">
<path d="M4605 8840 c-827 -72 -1544 -354 -2175 -856 -172 -137 -476 -441
-611 -611 -571 -717 -869 -1565 -869 -2473 0 -903 301 -1762 866 -2470 138
-173 441 -476 614 -614 732 -584 1632 -887 2560 -863 610 16 1145 149 1681
418 400 200 712 428 1041 760 629 636 1009 1436 1114 2344 21 182 25 632 6
805 -52 488 -180 936 -386 1357 -593 1210 -1756 2031 -3099 2188 -156 19 -600
27 -742 15z m2639 -1332 c-5 -7 -211 -249 -459 -538 -1222 -1423 -1415 -1649
-1415 -1658 0 -4 23 -42 51 -83 29 -41 155 -225 282 -409 296 -430 286 -416
647 -940 169 -245 402 -584 520 -755 117 -170 281 -409 365 -530 83 -121 166
-241 184 -267 l32 -48 -779 0 -778 0 -171 253 c-94 138 -231 340 -304 447
-143 209 -438 643 -726 1067 -98 144 -181 262 -185 263 -4 0 -125 -138 -270
-307 -1277 -1490 -1432 -1668 -1457 -1676 -31 -9 -419 -8 -425 2 -5 7 1 14
624 736 218 253 457 530 531 616 74 86 283 330 466 542 l332 386 -66 98 c-78
115 -851 1251 -999 1468 -57 83 -184 269 -283 415 -99 146 -277 408 -395 582
-119 174 -216 319 -216 323 0 3 340 4 756 3 l756 -3 647 -939 c355 -517 651
-941 656 -942 6 -2 123 128 260 288 234 273 349 407 915 1063 123 143 280 326
349 407 l126 148 218 0 c172 0 217 -3 211 -12z"/>
<path d="M2940 7160 c0 -10 103 -158 615 -885 89 -126 179 -255 200 -285 82
-117 508 -724 639 -910 76 -107 141 -195 145 -195 9 0 381 429 381 439 0 4
-91 136 -202 294 -111 158 -292 415 -402 572 -109 157 -253 362 -319 455 -67
94 -172 244 -235 335 -63 91 -122 171 -130 178 -20 16 -692 18 -692 2z"/>
<path d="M5033 4928 c-49 -57 -135 -156 -191 -221 l-102 -119 83 -118 c45 -65
127 -183 183 -262 56 -78 234 -332 396 -563 162 -231 364 -519 449 -640 86
-121 173 -245 194 -275 21 -30 45 -65 54 -77 16 -22 16 -22 364 -23 191 0 347
3 347 6 0 3 -26 43 -59 87 -32 45 -164 233 -293 417 -238 340 -538 767 -881
1255 -105 149 -246 350 -314 447 -69 98 -129 180 -133 183 -5 3 -48 -41 -97
-97z"/>
</g>
</svg>
